<svg width="84" height="68" viewBox="0 0 84 68" fill="none" xmlns="http://www.w3.org/2000/svg">
<mask id="path-1-inside-1" fill="white">
<path d="M0 16.1667L4 11H16V42H4L0 36.8333V16.1667Z"/>
</mask>
<path d="M0 16.1667L-1.18609 15.2484L-1.5 16.1667H0ZM16 11H17.5L16 9.5V11ZM16 42V43.5L17.5 42H16ZM0 36.8333H-1.5L-1.18609 37.7516L0 36.8333ZM4 11V9.5L2.81391 10.0817L4 11ZM4 42L2.81391 42.9183L4 43.5V42ZM14.5 11V42H17.5V11H14.5ZM1.5 36.8333V16.1667H-1.5V36.8333H1.5ZM1.18609 17.0849L5.18609 11.9183L2.81391 10.0817L-1.18609 15.2484L1.18609 17.0849ZM4 12.5H16V9.5H4V12.5ZM16 40.5H4V43.5H16V40.5ZM5.18609 41.0817L1.18609 35.9151L-1.18609 37.7516L2.81391 42.9183L5.18609 41.0817Z" fill="#2B6CB0" mask="url(#path-1-inside-1)"/>
<path d="M0 31H7.07142" stroke="#2B6CB0" stroke-width="1.5"/>
<path d="M0 22H7.07142" stroke="#2B6CB0" stroke-width="1.5"/>
<rect width="4" height="4" transform="matrix(-1 0 0 1 13 18)" fill="#2B6CB0"/>
<rect width="4" height="4" transform="matrix(-1 0 0 1 13 30)" fill="#2B6CB0"/>
<rect width="4" height="4" transform="matrix(-1 0 0 1 13 24)" fill="#2B6CB0"/>
<path d="M16.75 41.4144V11.6L55.25 2.9375V51.0394L16.75 41.4144Z" fill="#2B6CB0" stroke="#2B6CB0" stroke-width="1.5"/>
<path d="M56.75 51.3984V2.60163L64.25 0.934962V27V53.065L56.75 51.3984Z" stroke="#2B6CB0" stroke-width="1.5"/>
<path d="M74.7501 27.5C74.7501 32.9097 70.1027 37.7971 64.75 38.2203C64.75 35.0421 64.75 33.9101 64.75 32.2073C64.75 31.1094 64.75 29.7741 64.75 27.5L64.75 23.9093L64.7501 17.7737C70.1799 18.1178 74.7501 22.1687 74.7501 27.5Z" stroke="#2B6CB0" stroke-width="1.5"/>
<path d="M50.5 50C48.2332 59.1107 40.089 64.7442 32.5858 62.8773C25.0826 61.0104 20.8376 52.1114 23.1044 43.0007C31.4522 45.0663 27.7243 44.2569 35.2275 46.1238C42.7307 47.9907 38.5291 47.1654 50.5 50Z" stroke="#2B6CB0" stroke-width="1.5"/>
<path d="M69 7L80 3" stroke="#2B6CB0" stroke-width="1.5"/>
<path d="M69 48L80 52" stroke="#2B6CB0" stroke-width="1.5"/>
<path d="M75 23L83 21" stroke="#2B6CB0" stroke-width="1.5"/>
<path d="M75 32L83 34" stroke="#2B6CB0" stroke-width="1.5"/>
<path d="M35.6247 46.1354C35.66 46.1431 35.6923 46.1501 35.7211 46.1561C36.0701 46.2457 36.5304 46.3621 37.1305 46.5123C38.8852 46.9512 41.8456 47.681 46.7418 48.8765C44.7712 55.6587 39.0332 59.7414 33.8642 58.4801C28.6953 57.2187 25.4828 50.9518 26.8578 44.0243C31.4174 45.1362 33.8425 45.7206 34.9757 45.9863C35.2737 46.0562 35.4857 46.1048 35.6247 46.1354Z" stroke="#2B6CB0" stroke-width="1.5"/>
</svg>
